<MIDIFile>
<Format>1</Format>
<TrackCount>5</TrackCount>
<TicksPerBeat>480</TicksPerBeat>
<TimestampType>Absolute</TimestampType>
<Track Number="0">
  <Event>
    <Absolute>0</Absolute>
    <TimeSignature Numerator="3" LogDenominator="2" MIDIClocksPerMetronomeClick="24" ThirtySecondsPer24Clocks="8"/>
  </Event>
  <Event>
    <Absolute>0</Absolute>
    <SetTempo Value="352941"/>
  </Event>
  <Event>
    <Absolute>0</Absolute>
    <KeySignature Fifths="3" Mode="0"/>
  </Event>
  <Event>
    <Absolute>0</Absolute>
    <Marker>Seq-1</Marker>
  </Event>
  <Event>
    <Absolute>54400</Absolute>
    <EndOfTrack/>
  </Event>
</Track>
<Track Number="1">
  <Event>
    <Absolute>0</Absolute>
    <MIDIChannelPrefix Value="00"/>
  </Event>
  <Event>
    <Absolute>0</Absolute>
    <TrackName>Track-1</TrackName>
  </Event>
  <Event>
    <Absolute>0</Absolute>
    <TextEvent>soprano</TextEvent>
  </Event>
  <Event>
    <Absolute>54400</Absolute>
    <EndOfTrack/>
  </Event>
</Track>
<Track Number="2">
  <Event>
    <Absolute>0</Absolute>
    <MIDIChannelPrefix Value="00"/>
  </Event>
  <Event>
    <Absolute>0</Absolute>
    <TrackName>Track-2</TrackName>
  </Event>
  <Event>
    <Absolute>0</Absolute>
    <TextEvent>alto</TextEvent>
  </Event>
  <Event>
    <Absolute>54400</Absolute>
    <EndOfTrack/>
  </Event>
</Track>
<Track Number="3">
  <Event>
    <Absolute>0</Absolute>
    <MIDIChannelPrefix Value="00"/>
  </Event>
  <Event>
    <Absolute>0</Absolute>
    <TrackName>Track-3</TrackName>
  </Event>
  <Event>
    <Absolute>0</Absolute>
    <TextEvent>tenor</TextEvent>
  </Event>
  <Event>
    <Absolute>54400</Absolute>
    <EndOfTrack/>
  </Event>
</Track>
<Track Number="4">
  <Event>
    <Absolute>0</Absolute>
    <MIDIChannelPrefix Value="00"/>
  </Event>
  <Event>
    <Absolute>0</Absolute>
    <TrackName>Track-4</TrackName>
  </Event>
  <Event>
    <Absolute>0</Absolute>
    <TextEvent>baritone</TextEvent>
  </Event>
  <Event>
    <Absolute>0</Absolute>
    <ProgramChange Channel="7" Number="0"/>
  </Event>
  <Event>
    <Absolute>0</Absolute>
    <ControlChange Channel="7" Control="7" Value="100"/>
  </Event>
  <Event>
    <Absolute>0</Absolute>
    <ControlChange Channel="7" Control="10" Value="42"/>
  </Event>
  <Event>
    <Absolute>17280</Absolute>
    <NoteOn Channel="7" Note="50" Velocity="64"/>
  </Event>
  <Event>
    <Absolute>17280</Absolute>
    <NoteOn Channel="7" Note="50" Velocity="64"/>
  </Event>
  <Event>
    <Absolute>17760</Absolute>
    <NoteOff Channel="7" Note="50" Velocity="48"/>
  </Event>
  <Event>
    <Absolute>17760</Absolute>
    <NoteOff Channel="7" Note="50" Velocity="48"/>
  </Event>
  <Event>
    <Absolute>17760</Absolute>
    <NoteOn Channel="7" Note="50" Velocity="64"/>
  </Event>
  <Event>
    <Absolute>17760</Absolute>
    <NoteOn Channel="7" Note="50" Velocity="64"/>
  </Event>
  <Event>
    <Absolute>18000</Absolute>
    <NoteOff Channel="7" Note="50" Velocity="48"/>
  </Event>
  <Event>
    <Absolute>18000</Absolute>
    <NoteOff Channel="7" Note="50" Velocity="48"/>
  </Event>
  <Event>
    <Absolute>18000</Absolute>
    <NoteOn Channel="7" Note="50" Velocity="64"/>
  </Event>
  <Event>
    <Absolute>18000</Absolute>
    <NoteOn Channel="7" Note="50" Velocity="64"/>
  </Event>
  <Event>
    <Absolute>18240</Absolute>
    <NoteOff Channel="7" Note="50" Velocity="48"/>
  </Event>
  <Event>
    <Absolute>18240</Absolute>
    <NoteOff Channel="7" Note="50" Velocity="48"/>
  </Event>
  <Event>
    <Absolute>18240</Absolute>
    <NoteOn Channel="7" Note="50" Velocity="64"/>
  </Event>
  <Event>
    <Absolute>18240</Absolute>
    <NoteOn Channel="7" Note="50" Velocity="64"/>
  </Event>
  <Event>
    <Absolute>18720</Absolute>
    <NoteOff Channel="7" Note="50" Velocity="48"/>
  </Event>
  <Event>
    <Absolute>18720</Absolute>
    <NoteOff Channel="7" Note="50" Velocity="48"/>
  </Event>
  <Event>
    <Absolute>18720</Absolute>
    <NoteOn Channel="7" Note="54" Velocity="64"/>
  </Event>
  <Event>
    <Absolute>18720</Absolute>
    <NoteOn Channel="7" Note="54" Velocity="64"/>
  </Event>
  <Event>
    <Absolute>19200</Absolute>
    <NoteOff Channel="7" Note="54" Velocity="48"/>
  </Event>
  <Event>
    <Absolute>19200</Absolute>
    <NoteOff Channel="7" Note="54" Velocity="48"/>
  </Event>
  <Event>
    <Absolute>19200</Absolute>
    <NoteOn Channel="7" Note="54" Velocity="64"/>
  </Event>
  <Event>
    <Absolute>19200</Absolute>
    <NoteOn Channel="7" Note="54" Velocity="64"/>
  </Event>
  <Event>
    <Absolute>19440</Absolute>
    <NoteOff Channel="7" Note="54" Velocity="48"/>
  </Event>
  <Event>
    <Absolute>19440</Absolute>
    <NoteOff Channel="7" Note="54" Velocity="48"/>
  </Event>
  <Event>
    <Absolute>19440</Absolute>
    <NoteOn Channel="7" Note="54" Velocity="64"/>
  </Event>
  <Event>
    <Absolute>19440</Absolute>
    <NoteOn Channel="7" Note="54" Velocity="64"/>
  </Event>
  <Event>
    <Absolute>19680</Absolute>
    <NoteOff Channel="7" Note="54" Velocity="48"/>
  </Event>
  <Event>
    <Absolute>19680</Absolute>
    <NoteOff Channel="7" Note="54" Velocity="48"/>
  </Event>
  <Event>
    <Absolute>19680</Absolute>
    <NoteOn Channel="7" Note="54" Velocity="64"/>
  </Event>
  <Event>
    <Absolute>19680</Absolute>
    <NoteOn Channel="7" Note="54" Velocity="64"/>
  </Event>
  <Event>
    <Absolute>20160</Absolute>
    <NoteOff Channel="7" Note="54" Velocity="48"/>
  </Event>
  <Event>
    <Absolute>20160</Absolute>
    <NoteOff Channel="7" Note="54" Velocity="48"/>
  </Event>
  <Event>
    <Absolute>20160</Absolute>
    <NoteOn Channel="7" Note="59" Velocity="64"/>
  </Event>
  <Event>
    <Absolute>20160</Absolute>
    <NoteOn Channel="7" Note="59" Velocity="64"/>
  </Event>
  <Event>
    <Absolute>20640</Absolute>
    <NoteOff Channel="7" Note="59" Velocity="48"/>
  </Event>
  <Event>
    <Absolute>20640</Absolute>
    <NoteOff Channel="7" Note="59" Velocity="48"/>
  </Event>
  <Event>
    <Absolute>20640</Absolute>
    <NoteOn Channel="7" Note="59" Velocity="64"/>
  </Event>
  <Event>
    <Absolute>20640</Absolute>
    <NoteOn Channel="7" Note="59" Velocity="64"/>
  </Event>
  <Event>
    <Absolute>20880</Absolute>
    <NoteOff Channel="7" Note="59" Velocity="48"/>
  </Event>
  <Event>
    <Absolute>20880</Absolute>
    <NoteOff Channel="7" Note="59" Velocity="48"/>
  </Event>
  <Event>
    <Absolute>20880</Absolute>
    <NoteOn Channel="7" Note="59" Velocity="64"/>
  </Event>
  <Event>
    <Absolute>20880</Absolute>
    <NoteOn Channel="7" Note="59" Velocity="64"/>
  </Event>
  <Event>
    <Absolute>21120</Absolute>
    <NoteOff Channel="7" Note="59" Velocity="48"/>
  </Event>
  <Event>
    <Absolute>21120</Absolute>
    <NoteOff Channel="7" Note="59" Velocity="48"/>
  </Event>
  <Event>
    <Absolute>21120</Absolute>
    <NoteOn Channel="7" Note="59" Velocity="64"/>
  </Event>
  <Event>
    <Absolute>21120</Absolute>
    <NoteOn Channel="7" Note="59" Velocity="64"/>
  </Event>
  <Event>
    <Absolute>21600</Absolute>
    <NoteOff Channel="7" Note="59" Velocity="48"/>
  </Event>
  <Event>
    <Absolute>21600</Absolute>
    <NoteOff Channel="7" Note="59" Velocity="48"/>
  </Event>
  <Event>
    <Absolute>21600</Absolute>
    <NoteOn Channel="7" Note="54" Velocity="64"/>
  </Event>
  <Event>
    <Absolute>21600</Absolute>
    <NoteOn Channel="7" Note="54" Velocity="64"/>
  </Event>
  <Event>
    <Absolute>22080</Absolute>
    <NoteOff Channel="7" Note="54" Velocity="48"/>
  </Event>
  <Event>
    <Absolute>22080</Absolute>
    <NoteOff Channel="7" Note="54" Velocity="48"/>
  </Event>
  <Event>
    <Absolute>22080</Absolute>
    <NoteOn Channel="7" Note="54" Velocity="64"/>
  </Event>
  <Event>
    <Absolute>22080</Absolute>
    <NoteOn Channel="7" Note="54" Velocity="64"/>
  </Event>
  <Event>
    <Absolute>22320</Absolute>
    <NoteOff Channel="7" Note="54" Velocity="48"/>
  </Event>
  <Event>
    <Absolute>22320</Absolute>
    <NoteOff Channel="7" Note="54" Velocity="48"/>
  </Event>
  <Event>
    <Absolute>22320</Absolute>
    <NoteOn Channel="7" Note="54" Velocity="64"/>
  </Event>
  <Event>
    <Absolute>22320</Absolute>
    <NoteOn Channel="7" Note="54" Velocity="64"/>
  </Event>
  <Event>
    <Absolute>22560</Absolute>
    <NoteOff Channel="7" Note="54" Velocity="48"/>
  </Event>
  <Event>
    <Absolute>22560</Absolute>
    <NoteOff Channel="7" Note="54" Velocity="48"/>
  </Event>
  <Event>
    <Absolute>22560</Absolute>
    <NoteOn Channel="7" Note="54" Velocity="64"/>
  </Event>
  <Event>
    <Absolute>22560</Absolute>
    <NoteOn Channel="7" Note="54" Velocity="64"/>
  </Event>
  <Event>
    <Absolute>23040</Absolute>
    <NoteOff Channel="7" Note="54" Velocity="48"/>
  </Event>
  <Event>
    <Absolute>23040</Absolute>
    <NoteOff Channel="7" Note="54" Velocity="48"/>
  </Event>
  <Event>
    <Absolute>23040</Absolute>
    <NoteOn Channel="7" Note="54" Velocity="64"/>
  </Event>
  <Event>
    <Absolute>23040</Absolute>
    <NoteOn Channel="7" Note="54" Velocity="64"/>
  </Event>
  <Event>
    <Absolute>23520</Absolute>
    <NoteOff Channel="7" Note="54" Velocity="48"/>
  </Event>
  <Event>
    <Absolute>23520</Absolute>
    <NoteOff Channel="7" Note="54" Velocity="48"/>
  </Event>
  <Event>
    <Absolute>23520</Absolute>
    <NoteOn Channel="7" Note="54" Velocity="64"/>
  </Event>
  <Event>
    <Absolute>23520</Absolute>
    <NoteOn Channel="7" Note="54" Velocity="64"/>
  </Event>
  <Event>
    <Absolute>23760</Absolute>
    <NoteOff Channel="7" Note="54" Velocity="48"/>
  </Event>
  <Event>
    <Absolute>23760</Absolute>
    <NoteOff Channel="7" Note="54" Velocity="48"/>
  </Event>
  <Event>
    <Absolute>23760</Absolute>
    <NoteOn Channel="7" Note="54" Velocity="64"/>
  </Event>
  <Event>
    <Absolute>23760</Absolute>
    <NoteOn Channel="7" Note="54" Velocity="64"/>
  </Event>
  <Event>
    <Absolute>24000</Absolute>
    <NoteOff Channel="7" Note="54" Velocity="48"/>
  </Event>
  <Event>
    <Absolute>24000</Absolute>
    <NoteOff Channel="7" Note="54" Velocity="48"/>
  </Event>
  <Event>
    <Absolute>24000</Absolute>
    <NoteOn Channel="7" Note="54" Velocity="64"/>
  </Event>
  <Event>
    <Absolute>24000</Absolute>
    <NoteOn Channel="7" Note="54" Velocity="64"/>
  </Event>
  <Event>
    <Absolute>24480</Absolute>
    <NoteOff Channel="7" Note="54" Velocity="48"/>
  </Event>
  <Event>
    <Absolute>24480</Absolute>
    <NoteOff Channel="7" Note="54" Velocity="48"/>
  </Event>
  <Event>
    <Absolute>24480</Absolute>
    <NoteOn Channel="7" Note="54" Velocity="64"/>
  </Event>
  <Event>
    <Absolute>24480</Absolute>
    <NoteOn Channel="7" Note="54" Velocity="64"/>
  </Event>
  <Event>
    <Absolute>24960</Absolute>
    <NoteOff Channel="7" Note="54" Velocity="48"/>
  </Event>
  <Event>
    <Absolute>24960</Absolute>
    <NoteOff Channel="7" Note="54" Velocity="48"/>
  </Event>
  <Event>
    <Absolute>24960</Absolute>
    <NoteOn Channel="7" Note="54" Velocity="64"/>
  </Event>
  <Event>
    <Absolute>24960</Absolute>
    <NoteOn Channel="7" Note="54" Velocity="64"/>
  </Event>
  <Event>
    <Absolute>25200</Absolute>
    <NoteOff Channel="7" Note="54" Velocity="48"/>
  </Event>
  <Event>
    <Absolute>25200</Absolute>
    <NoteOff Channel="7" Note="54" Velocity="48"/>
  </Event>
  <Event>
    <Absolute>25200</Absolute>
    <NoteOn Channel="7" Note="54" Velocity="64"/>
  </Event>
  <Event>
    <Absolute>25200</Absolute>
    <NoteOn Channel="7" Note="54" Velocity="64"/>
  </Event>
  <Event>
    <Absolute>25440</Absolute>
    <NoteOff Channel="7" Note="54" Velocity="48"/>
  </Event>
  <Event>
    <Absolute>25440</Absolute>
    <NoteOff Channel="7" Note="54" Velocity="48"/>
  </Event>
  <Event>
    <Absolute>25440</Absolute>
    <NoteOn Channel="7" Note="54" Velocity="64"/>
  </Event>
  <Event>
    <Absolute>25440</Absolute>
    <NoteOn Channel="7" Note="54" Velocity="64"/>
  </Event>
  <Event>
    <Absolute>25920</Absolute>
    <NoteOff Channel="7" Note="54" Velocity="48"/>
  </Event>
  <Event>
    <Absolute>25920</Absolute>
    <NoteOff Channel="7" Note="54" Velocity="48"/>
  </Event>
  <Event>
    <Absolute>25920</Absolute>
    <NoteOn Channel="7" Note="54" Velocity="64"/>
  </Event>
  <Event>
    <Absolute>25920</Absolute>
    <NoteOn Channel="7" Note="54" Velocity="64"/>
  </Event>
  <Event>
    <Absolute>26400</Absolute>
    <NoteOff Channel="7" Note="54" Velocity="48"/>
  </Event>
  <Event>
    <Absolute>26400</Absolute>
    <NoteOff Channel="7" Note="54" Velocity="48"/>
  </Event>
  <Event>
    <Absolute>26400</Absolute>
    <NoteOn Channel="7" Note="54" Velocity="64"/>
  </Event>
  <Event>
    <Absolute>26400</Absolute>
    <NoteOn Channel="7" Note="54" Velocity="64"/>
  </Event>
  <Event>
    <Absolute>26640</Absolute>
    <NoteOff Channel="7" Note="54" Velocity="48"/>
  </Event>
  <Event>
    <Absolute>26640</Absolute>
    <NoteOff Channel="7" Note="54" Velocity="48"/>
  </Event>
  <Event>
    <Absolute>26640</Absolute>
    <NoteOn Channel="7" Note="54" Velocity="64"/>
  </Event>
  <Event>
    <Absolute>26640</Absolute>
    <NoteOn Channel="7" Note="54" Velocity="64"/>
  </Event>
  <Event>
    <Absolute>26880</Absolute>
    <NoteOff Channel="7" Note="54" Velocity="48"/>
  </Event>
  <Event>
    <Absolute>26880</Absolute>
    <NoteOff Channel="7" Note="54" Velocity="48"/>
  </Event>
  <Event>
    <Absolute>26880</Absolute>
    <NoteOn Channel="7" Note="54" Velocity="64"/>
  </Event>
  <Event>
    <Absolute>26880</Absolute>
    <NoteOn Channel="7" Note="54" Velocity="64"/>
  </Event>
  <Event>
    <Absolute>27360</Absolute>
    <NoteOff Channel="7" Note="54" Velocity="48"/>
  </Event>
  <Event>
    <Absolute>27360</Absolute>
    <NoteOff Channel="7" Note="54" Velocity="48"/>
  </Event>
  <Event>
    <Absolute>27360</Absolute>
    <NoteOn Channel="7" Note="54" Velocity="64"/>
  </Event>
  <Event>
    <Absolute>27360</Absolute>
    <NoteOn Channel="7" Note="54" Velocity="64"/>
  </Event>
  <Event>
    <Absolute>27840</Absolute>
    <NoteOff Channel="7" Note="54" Velocity="48"/>
  </Event>
  <Event>
    <Absolute>27840</Absolute>
    <NoteOff Channel="7" Note="54" Velocity="48"/>
  </Event>
  <Event>
    <Absolute>27840</Absolute>
    <NoteOn Channel="7" Note="54" Velocity="64"/>
  </Event>
  <Event>
    <Absolute>27840</Absolute>
    <NoteOn Channel="7" Note="54" Velocity="64"/>
  </Event>
  <Event>
    <Absolute>28080</Absolute>
    <NoteOff Channel="7" Note="54" Velocity="48"/>
  </Event>
  <Event>
    <Absolute>28080</Absolute>
    <NoteOff Channel="7" Note="54" Velocity="48"/>
  </Event>
  <Event>
    <Absolute>28080</Absolute>
    <NoteOn Channel="7" Note="54" Velocity="64"/>
  </Event>
  <Event>
    <Absolute>28080</Absolute>
    <NoteOn Channel="7" Note="54" Velocity="64"/>
  </Event>
  <Event>
    <Absolute>28320</Absolute>
    <NoteOff Channel="7" Note="54" Velocity="48"/>
  </Event>
  <Event>
    <Absolute>28320</Absolute>
    <NoteOff Channel="7" Note="54" Velocity="48"/>
  </Event>
  <Event>
    <Absolute>28320</Absolute>
    <NoteOn Channel="7" Note="54" Velocity="64"/>
  </Event>
  <Event>
    <Absolute>28320</Absolute>
    <NoteOn Channel="7" Note="54" Velocity="64"/>
  </Event>
  <Event>
    <Absolute>28800</Absolute>
    <NoteOff Channel="7" Note="54" Velocity="48"/>
  </Event>
  <Event>
    <Absolute>28800</Absolute>
    <NoteOff Channel="7" Note="54" Velocity="48"/>
  </Event>
  <Event>
    <Absolute>28800</Absolute>
    <NoteOn Channel="7" Note="57" Velocity="64"/>
  </Event>
  <Event>
    <Absolute>28800</Absolute>
    <NoteOn Channel="7" Note="57" Velocity="64"/>
  </Event>
  <Event>
    <Absolute>29280</Absolute>
    <NoteOff Channel="7" Note="57" Velocity="48"/>
  </Event>
  <Event>
    <Absolute>29280</Absolute>
    <NoteOff Channel="7" Note="57" Velocity="48"/>
  </Event>
  <Event>
    <Absolute>29280</Absolute>
    <NoteOn Channel="7" Note="56" Velocity="64"/>
  </Event>
  <Event>
    <Absolute>29280</Absolute>
    <NoteOn Channel="7" Note="56" Velocity="64"/>
  </Event>
  <Event>
    <Absolute>29520</Absolute>
    <NoteOff Channel="7" Note="56" Velocity="48"/>
  </Event>
  <Event>
    <Absolute>29520</Absolute>
    <NoteOff Channel="7" Note="56" Velocity="48"/>
  </Event>
  <Event>
    <Absolute>29520</Absolute>
    <NoteOn Channel="7" Note="57" Velocity="64"/>
  </Event>
  <Event>
    <Absolute>29520</Absolute>
    <NoteOn Channel="7" Note="57" Velocity="64"/>
  </Event>
  <Event>
    <Absolute>29760</Absolute>
    <NoteOff Channel="7" Note="57" Velocity="48"/>
  </Event>
  <Event>
    <Absolute>29760</Absolute>
    <NoteOff Channel="7" Note="57" Velocity="48"/>
  </Event>
  <Event>
    <Absolute>29760</Absolute>
    <NoteOn Channel="7" Note="54" Velocity="64"/>
  </Event>
  <Event>
    <Absolute>29760</Absolute>
    <NoteOn Channel="7" Note="54" Velocity="64"/>
  </Event>
  <Event>
    <Absolute>30000</Absolute>
    <NoteOff Channel="7" Note="54" Velocity="48"/>
  </Event>
  <Event>
    <Absolute>30000</Absolute>
    <NoteOff Channel="7" Note="54" Velocity="48"/>
  </Event>
  <Event>
    <Absolute>30000</Absolute>
    <NoteOn Channel="7" Note="54" Velocity="64"/>
  </Event>
  <Event>
    <Absolute>30000</Absolute>
    <NoteOn Channel="7" Note="54" Velocity="64"/>
  </Event>
  <Event>
    <Absolute>30240</Absolute>
    <NoteOff Channel="7" Note="54" Velocity="48"/>
  </Event>
  <Event>
    <Absolute>30240</Absolute>
    <NoteOff Channel="7" Note="54" Velocity="48"/>
  </Event>
  <Event>
    <Absolute>30240</Absolute>
    <NoteOn Channel="7" Note="57" Velocity="64"/>
  </Event>
  <Event>
    <Absolute>30240</Absolute>
    <NoteOn Channel="7" Note="57" Velocity="64"/>
  </Event>
  <Event>
    <Absolute>30720</Absolute>
    <NoteOff Channel="7" Note="57" Velocity="48"/>
  </Event>
  <Event>
    <Absolute>30720</Absolute>
    <NoteOff Channel="7" Note="57" Velocity="48"/>
  </Event>
  <Event>
    <Absolute>30720</Absolute>
    <NoteOn Channel="7" Note="56" Velocity="64"/>
  </Event>
  <Event>
    <Absolute>30720</Absolute>
    <NoteOn Channel="7" Note="56" Velocity="64"/>
  </Event>
  <Event>
    <Absolute>30960</Absolute>
    <NoteOff Channel="7" Note="56" Velocity="48"/>
  </Event>
  <Event>
    <Absolute>30960</Absolute>
    <NoteOff Channel="7" Note="56" Velocity="48"/>
  </Event>
  <Event>
    <Absolute>30960</Absolute>
    <NoteOn Channel="7" Note="57" Velocity="64"/>
  </Event>
  <Event>
    <Absolute>30960</Absolute>
    <NoteOn Channel="7" Note="57" Velocity="64"/>
  </Event>
  <Event>
    <Absolute>31200</Absolute>
    <NoteOff Channel="7" Note="57" Velocity="48"/>
  </Event>
  <Event>
    <Absolute>31200</Absolute>
    <NoteOff Channel="7" Note="57" Velocity="48"/>
  </Event>
  <Event>
    <Absolute>31200</Absolute>
    <NoteOn Channel="7" Note="54" Velocity="64"/>
  </Event>
  <Event>
    <Absolute>31200</Absolute>
    <NoteOn Channel="7" Note="54" Velocity="64"/>
  </Event>
  <Event>
    <Absolute>31440</Absolute>
    <NoteOff Channel="7" Note="54" Velocity="48"/>
  </Event>
  <Event>
    <Absolute>31440</Absolute>
    <NoteOff Channel="7" Note="54" Velocity="48"/>
  </Event>
  <Event>
    <Absolute>31440</Absolute>
    <NoteOn Channel="7" Note="54" Velocity="64"/>
  </Event>
  <Event>
    <Absolute>31440</Absolute>
    <NoteOn Channel="7" Note="54" Velocity="64"/>
  </Event>
  <Event>
    <Absolute>31680</Absolute>
    <NoteOff Channel="7" Note="54" Velocity="48"/>
  </Event>
  <Event>
    <Absolute>31680</Absolute>
    <NoteOff Channel="7" Note="54" Velocity="48"/>
  </Event>
  <Event>
    <Absolute>31680</Absolute>
    <NoteOn Channel="7" Note="57" Velocity="64"/>
  </Event>
  <Event>
    <Absolute>31680</Absolute>
    <NoteOn Channel="7" Note="57" Velocity="64"/>
  </Event>
  <Event>
    <Absolute>32160</Absolute>
    <NoteOff Channel="7" Note="57" Velocity="48"/>
  </Event>
  <Event>
    <Absolute>32160</Absolute>
    <NoteOff Channel="7" Note="57" Velocity="48"/>
  </Event>
  <Event>
    <Absolute>32160</Absolute>
    <NoteOn Channel="7" Note="56" Velocity="64"/>
  </Event>
  <Event>
    <Absolute>32160</Absolute>
    <NoteOn Channel="7" Note="56" Velocity="64"/>
  </Event>
  <Event>
    <Absolute>32400</Absolute>
    <NoteOff Channel="7" Note="56" Velocity="48"/>
  </Event>
  <Event>
    <Absolute>32400</Absolute>
    <NoteOff Channel="7" Note="56" Velocity="48"/>
  </Event>
  <Event>
    <Absolute>32400</Absolute>
    <NoteOn Channel="7" Note="57" Velocity="64"/>
  </Event>
  <Event>
    <Absolute>32400</Absolute>
    <NoteOn Channel="7" Note="57" Velocity="64"/>
  </Event>
  <Event>
    <Absolute>32640</Absolute>
    <NoteOff Channel="7" Note="57" Velocity="48"/>
  </Event>
  <Event>
    <Absolute>32640</Absolute>
    <NoteOff Channel="7" Note="57" Velocity="48"/>
  </Event>
  <Event>
    <Absolute>32640</Absolute>
    <NoteOn Channel="7" Note="54" Velocity="64"/>
  </Event>
  <Event>
    <Absolute>32640</Absolute>
    <NoteOn Channel="7" Note="54" Velocity="64"/>
  </Event>
  <Event>
    <Absolute>32880</Absolute>
    <NoteOff Channel="7" Note="54" Velocity="48"/>
  </Event>
  <Event>
    <Absolute>32880</Absolute>
    <NoteOff Channel="7" Note="54" Velocity="48"/>
  </Event>
  <Event>
    <Absolute>32880</Absolute>
    <NoteOn Channel="7" Note="54" Velocity="64"/>
  </Event>
  <Event>
    <Absolute>32880</Absolute>
    <NoteOn Channel="7" Note="54" Velocity="64"/>
  </Event>
  <Event>
    <Absolute>33120</Absolute>
    <NoteOff Channel="7" Note="54" Velocity="48"/>
  </Event>
  <Event>
    <Absolute>33120</Absolute>
    <NoteOff Channel="7" Note="54" Velocity="48"/>
  </Event>
  <Event>
    <Absolute>33120</Absolute>
    <NoteOn Channel="7" Note="57" Velocity="64"/>
  </Event>
  <Event>
    <Absolute>33120</Absolute>
    <NoteOn Channel="7" Note="57" Velocity="64"/>
  </Event>
  <Event>
    <Absolute>33600</Absolute>
    <NoteOff Channel="7" Note="57" Velocity="48"/>
  </Event>
  <Event>
    <Absolute>33600</Absolute>
    <NoteOff Channel="7" Note="57" Velocity="48"/>
  </Event>
  <Event>
    <Absolute>33600</Absolute>
    <NoteOn Channel="7" Note="56" Velocity="64"/>
  </Event>
  <Event>
    <Absolute>33600</Absolute>
    <NoteOn Channel="7" Note="56" Velocity="64"/>
  </Event>
  <Event>
    <Absolute>33840</Absolute>
    <NoteOff Channel="7" Note="56" Velocity="48"/>
  </Event>
  <Event>
    <Absolute>33840</Absolute>
    <NoteOff Channel="7" Note="56" Velocity="48"/>
  </Event>
  <Event>
    <Absolute>33840</Absolute>
    <NoteOn Channel="7" Note="57" Velocity="64"/>
  </Event>
  <Event>
    <Absolute>33840</Absolute>
    <NoteOn Channel="7" Note="57" Velocity="64"/>
  </Event>
  <Event>
    <Absolute>34080</Absolute>
    <NoteOff Channel="7" Note="57" Velocity="48"/>
  </Event>
  <Event>
    <Absolute>34080</Absolute>
    <NoteOff Channel="7" Note="57" Velocity="48"/>
  </Event>
  <Event>
    <Absolute>34080</Absolute>
    <NoteOn Channel="7" Note="54" Velocity="64"/>
  </Event>
  <Event>
    <Absolute>34080</Absolute>
    <NoteOn Channel="7" Note="54" Velocity="64"/>
  </Event>
  <Event>
    <Absolute>34320</Absolute>
    <NoteOff Channel="7" Note="54" Velocity="48"/>
  </Event>
  <Event>
    <Absolute>34320</Absolute>
    <NoteOff Channel="7" Note="54" Velocity="48"/>
  </Event>
  <Event>
    <Absolute>34320</Absolute>
    <NoteOn Channel="7" Note="54" Velocity="64"/>
  </Event>
  <Event>
    <Absolute>34320</Absolute>
    <NoteOn Channel="7" Note="54" Velocity="64"/>
  </Event>
  <Event>
    <Absolute>34560</Absolute>
    <NoteOff Channel="7" Note="54" Velocity="48"/>
  </Event>
  <Event>
    <Absolute>34560</Absolute>
    <NoteOff Channel="7" Note="54" Velocity="48"/>
  </Event>
  <Event>
    <Absolute>34560</Absolute>
    <NoteOn Channel="7" Note="49" Velocity="64"/>
  </Event>
  <Event>
    <Absolute>34560</Absolute>
    <NoteOn Channel="7" Note="49" Velocity="64"/>
  </Event>
  <Event>
    <Absolute>36000</Absolute>
    <NoteOff Channel="7" Note="49" Velocity="48"/>
  </Event>
  <Event>
    <Absolute>36000</Absolute>
    <NoteOff Channel="7" Note="49" Velocity="48"/>
  </Event>
  <Event>
    <Absolute>36000</Absolute>
    <NoteOn Channel="7" Note="49" Velocity="64"/>
  </Event>
  <Event>
    <Absolute>36000</Absolute>
    <NoteOn Channel="7" Note="49" Velocity="64"/>
  </Event>
  <Event>
    <Absolute>37440</Absolute>
    <NoteOff Channel="7" Note="49" Velocity="48"/>
  </Event>
  <Event>
    <Absolute>37440</Absolute>
    <NoteOff Channel="7" Note="49" Velocity="48"/>
  </Event>
  <Event>
    <Absolute>37440</Absolute>
    <NoteOn Channel="7" Note="49" Velocity="64"/>
  </Event>
  <Event>
    <Absolute>37440</Absolute>
    <NoteOn Channel="7" Note="49" Velocity="64"/>
  </Event>
  <Event>
    <Absolute>38880</Absolute>
    <NoteOff Channel="7" Note="49" Velocity="48"/>
  </Event>
  <Event>
    <Absolute>38880</Absolute>
    <NoteOff Channel="7" Note="49" Velocity="48"/>
  </Event>
  <Event>
    <Absolute>38880</Absolute>
    <NoteOn Channel="7" Note="49" Velocity="64"/>
  </Event>
  <Event>
    <Absolute>38880</Absolute>
    <NoteOn Channel="7" Note="49" Velocity="64"/>
  </Event>
  <Event>
    <Absolute>40320</Absolute>
    <NoteOff Channel="7" Note="49" Velocity="48"/>
  </Event>
  <Event>
    <Absolute>40320</Absolute>
    <NoteOff Channel="7" Note="49" Velocity="48"/>
  </Event>
  <Event>
    <Absolute>40320</Absolute>
    <NoteOn Channel="7" Note="52" Velocity="64"/>
  </Event>
  <Event>
    <Absolute>40320</Absolute>
    <NoteOn Channel="7" Note="52" Velocity="64"/>
  </Event>
  <Event>
    <Absolute>41760</Absolute>
    <NoteOff Channel="7" Note="52" Velocity="48"/>
  </Event>
  <Event>
    <Absolute>41760</Absolute>
    <NoteOff Channel="7" Note="52" Velocity="48"/>
  </Event>
  <Event>
    <Absolute>41760</Absolute>
    <NoteOn Channel="7" Note="50" Velocity="64"/>
  </Event>
  <Event>
    <Absolute>41760</Absolute>
    <NoteOn Channel="7" Note="50" Velocity="64"/>
  </Event>
  <Event>
    <Absolute>43200</Absolute>
    <NoteOff Channel="7" Note="50" Velocity="48"/>
  </Event>
  <Event>
    <Absolute>43200</Absolute>
    <NoteOff Channel="7" Note="50" Velocity="48"/>
  </Event>
  <Event>
    <Absolute>43200</Absolute>
    <NoteOn Channel="7" Note="49" Velocity="64"/>
  </Event>
  <Event>
    <Absolute>43200</Absolute>
    <NoteOn Channel="7" Note="49" Velocity="64"/>
  </Event>
  <Event>
    <Absolute>44640</Absolute>
    <NoteOff Channel="7" Note="49" Velocity="48"/>
  </Event>
  <Event>
    <Absolute>44640</Absolute>
    <NoteOff Channel="7" Note="49" Velocity="48"/>
  </Event>
  <Event>
    <Absolute>44640</Absolute>
    <NoteOn Channel="7" Note="47" Velocity="64"/>
  </Event>
  <Event>
    <Absolute>44640</Absolute>
    <NoteOn Channel="7" Note="47" Velocity="64"/>
  </Event>
  <Event>
    <Absolute>46080</Absolute>
    <NoteOff Channel="7" Note="47" Velocity="48"/>
  </Event>
  <Event>
    <Absolute>46080</Absolute>
    <NoteOff Channel="7" Note="47" Velocity="48"/>
  </Event>
  <Event>
    <Absolute>46080</Absolute>
    <NoteOn Channel="7" Note="42" Velocity="64"/>
  </Event>
  <Event>
    <Absolute>46080</Absolute>
    <NoteOn Channel="7" Note="42" Velocity="64"/>
  </Event>
  <Event>
    <Absolute>47520</Absolute>
    <NoteOff Channel="7" Note="42" Velocity="48"/>
  </Event>
  <Event>
    <Absolute>47520</Absolute>
    <NoteOff Channel="7" Note="42" Velocity="48"/>
  </Event>
  <Event>
    <Absolute>54400</Absolute>
    <EndOfTrack/>
  </Event>
</Track>
</MIDIFile>